<?xml version="1.0" standalone="no"?>
<!DOCTYPE svg PUBLIC "-//W3C//DTD SVG 20010904//EN" "http://www.w3.org/TR/2001/REC-SVG-20010904/DTD/svg10.dtd">
<svg version="1.0" xmlns="http://www.w3.org/2000/svg" width="256.000000pt" height="256.000000pt" viewBox="0 0 256.000000 256.000000" preserveAspectRatio="xMidYMid meet">

    <g transform="translate(0.000000,256.000000) scale(0.100000,-0.100000)" fill="#000000" stroke="none">
        <path d="M272 2288 c-9 -9 -12 -88 -12 -295 l0 -283 105 0 105 0 0 205 c0 192
1 205 19 215 12 6 95 10 200 10 179 0 180 0 199 -25 l20 -25 45 26 c36 20 50
23 66 15 10 -6 72 -103 137 -216 l117 -205 174 0 173 0 0 199 c0 168 2 202 16
215 13 13 45 16 199 16 154 0 186 -3 199 -16 14 -13 16 -47 16 -215 l0 -199
125 0 125 0 0 283 c0 207 -3 286 -12 295 -17 17 -1999 17 -2016 0z" />
        <path d="M560 1880 l0 -170 40 0 40 0 0 170 0 170 -40 0 -40 0 0 -170z" />
        <path d="M730 1880 l0 -170 40 0 40 0 0 170 0 170 -40 0 -40 0 0 -170z" />
        <path d="M1710 1880 l0 -170 40 0 40 0 0 170 0 170 -40 0 -40 0 0 -170z" />
        <path d="M1880 1880 l0 -170 40 0 40 0 0 170 0 170 -40 0 -40 0 0 -170z" />
        <path d="M953 2012 c-18 -9 -33 -19 -33 -24 0 -5 35 -69 77 -143 l77 -135 49
0 49 0 -20 33 c-11 17 -53 88 -92 157 -40 69 -73 126 -74 126 0 1 -16 -5 -33
-14z" />
        <path d="M900 1773 l0 -63 35 0 36 0 -17 31 c-8 17 -24 45 -35 63 l-19 31 0
-62z" />
        <path d="M260 1345 l0 -275 105 0 105 0 0 205 c0 192 1 205 19 215 12 6 94 10
199 10 161 0 181 -2 195 -18 15 -16 17 -46 17 -215 l0 -197 230 0 230 0 0 199
c0 195 1 200 22 215 18 13 56 16 201 16 176 0 178 0 201 -24 l22 -25 43 26
c31 18 48 23 62 17 11 -5 73 -101 138 -214 l118 -205 67 -3 66 -3 0 276 0 275
-1020 0 -1020 0 0 -275z" />
        <path d="M560 1240 l0 -170 40 0 40 0 0 170 0 170 -40 0 -40 0 0 -170z" />
        <path d="M730 1240 l0 -170 40 0 40 0 0 170 0 170 -40 0 -40 0 0 -170z" />
        <path d="M1450 1240 l0 -170 40 0 40 0 0 170 0 170 -40 0 -40 0 0 -170z" />
        <path d="M1620 1240 l0 -170 40 0 40 0 0 170 0 170 -40 0 -40 0 0 -170z" />
        <path d="M1845 1369 c-16 -11 -29 -23 -28 -28 1 -4 36 -67 78 -140 l77 -131
44 0 c24 0 44 2 44 5 0 8 -162 289 -174 301 -8 9 -19 7 -41 -7z" />
        <path d="M1790 1132 l0 -62 40 0 39 0 -30 53 c-46 77 -49 78 -49 9z" />
        <path d="M260 867 c0 -75 4 -117 12 -125 9 -9 113 -12 405 -12 l393 0 0 -143
0 -143 -56 -54 c-69 -68 -78 -84 -64 -110 10 -19 21 -20 330 -20 309 0 320 1
330 20 14 26 5 42 -64 110 l-56 54 0 143 0 143 393 0 c292 0 396 3 405 12 8 8
12 50 12 125 l0 113 -1020 0 -1020 0 0 -113z" />
    </g>
</svg>